<svg xmlns="http://www.w3.org/2000/svg" width="256" height="256" viewBox="0 0 256 256"><defs><clipPath id="a"><path d="M0 0h256v256H0z"/></clipPath></defs><g clip-path="url(#a)"><circle cx="128" cy="128" r="128" fill="#fff"/><path d="M91.036 221.498c47.857 0 47.857-.713 55.972-3.121 10.6-3.148-29.94-31.213-55.972-31.213s-47.133 7.685-47.133 17.165 21.1 17.169 47.133 17.169z"/><path d="M199.706 75.513l2.2 2.372-1.924 2.6c-62.415 84.39-98.37 122.6-113.625 117.474-9.292-3.121-18.611-12.509-27.929-26.141-3.276-4.791-6.351-9.837-9.149-14.858-1.863-3.343-3.44-6.393-4.258-8.11a20.218 20.218 0 01-1.835-5.313l-.042-.213c-.146-.753-.2-.99-.306-1.4a85.088 85.088 0 01123.685-96.148l.324.2q15.436 10.75 32.859 29.537zm-37.159-23.02a77.3 77.3 0 00-112.166 87.43c.169.636.245.995.424 1.917l.037.189a12.61 12.61 0 001.223 3.466c.747 1.567 2.248 4.469 4.031 7.67 2.689 4.826 5.643 9.672 8.774 14.252 8.419 12.316 16.769 20.727 23.972 23.147 9.607 3.227 45.774-35.058 102.931-112.1q-15.565-16.433-29.226-25.971z"/><path d="M162.546 52.493a77.3 77.3 0 00-112.165 87.43c.169.636.245.995.424 1.917l.037.189a12.61 12.61 0 001.223 3.464c.747 1.567 2.248 4.469 4.031 7.67 2.689 4.826 5.643 9.672 8.774 14.252 8.419 12.316 16.769 20.727 23.972 23.147 9.607 3.227 45.774-35.058 102.931-112.1q-15.566-16.432-29.227-25.969z" fill="#ec1c79"/><path d="M140.663 220.718a85.056 85.056 0 1185.056-85.056 85.056 85.056 0 01-85.056 85.056zm0-7.8a77.252 77.252 0 10-77.253-77.255 77.252 77.252 0 0077.253 77.252z"/><path d="M140.662 212.915a77.252 77.252 0 10-77.252-77.253 77.252 77.252 0 0077.252 77.253z" fill="#fff"/><path d="M82.875 151.487L72.649 120.68h8.958l5.331 17.7 5.9-17.785h7.3l5.9 17.785 5.331-17.7h8.783l-10.228 30.807h-7.385l-6.161-17.61-6.118 17.61zm40.639-.219V120.68h24.6v7.21h-16.21v4.632h14.684v6.686h-14.684v4.851h16.431v7.21zm36.619 0v-23.159h-9.176v-7.429h26.831v7.429h-9.177v23.16zm21.369 0V120.68h8.477v11.449h10.881V120.68h8.477v30.589h-8.477v-11.624h-10.881v11.624z" fill-rule="evenodd"/><path d="M45.069 111.479a4.37 4.37 0 013.905-7.817l12.485 6.243a4.37 4.37 0 11-3.908 7.817zm-1.437 20.701a4.37 4.37 0 113.662-7.935l12.485 5.762a4.37 4.37 0 11-3.662 7.935z"/></g></svg>